:FULLY-SPECIFIED
:FORCE-ALL-JOINTS-BE-3DOF
:DEGREES
272
root 7.74997 15.9095 -25.1229 9.69552 51.4242 3.86688
lfemur -29.4759 20.8642 -17.2987
ltibia 47.2459 -0 0
lfoot -16.7745 -14.5852 0.071589
ltoes 55.366 -0 0
rfemur -26.6928 -7.38624 12.5168
rtibia 57.6762 -0 0
rfoot 16.2694 -7.91008 0.100238
rtoes 2.16989 -0 0
lowerback 4.10713 -3.03277 -3.37789
upperback 1.17775 -4.10881 0.522096
thorax -0.763098 -2.01466 2.59658
lowerneck -8.5453 -8.38993 -2.11208
upperneck 0.959087 -11.1052 4.14555
head 2.19906 -5.44612 1.19174
lclavicle -8.08287e-15 -6.25208e-15 -1.89443e-30
lhumerus -48.8198 -36.5175 112.674
lradius 60.6823 -0 0
lwrist 20.5158 0 0
lhand 8.96961 12.087 -0.017702
lfingers 7.12502 -0 0
lthumb 34.1423 38.7872 -0.035014
rclavicle -8.08287e-15 -6.25208e-15 -1.89443e-30
rhumerus -41.0735 20.83 -68.274
rradius 55.6294 -0 0
rwrist 31.0688 0 0
rhand -8.75527 -1.28271 -0.930973
rfingers 7.12502 -0 0
rthumb 17.1609 -30.3047 -0.768116
273
root 7.79404 15.893 -25.0852 9.74278 51.7232 4.24533
lfemur -29.0627 20.7887 -17.3315
ltibia 47.4506 -0 0
lfoot -16.755 -15.0906 0.0778608
ltoes 55.6467 -0 0
rfemur -27.4938 -8.0942 13.3333
rtibia 57.6957 -0 0
rfoot 16.3511 -6.94022 0.0994827
rtoes 1.92095 -0 0
lowerback 4.30302 -3.05754 -3.5656
upperback 1.30992 -4.15237 0.361142
thorax -0.729957 -2.03646 2.54324
lowerneck -8.45731 -8.44744 -2.13574
upperneck 0.862125 -11.1865 4.37317
head 2.17277 -5.4831 1.26993
lclavicle -8.55767e-15 -6.65176e-15 -1.97278e-30
lhumerus -48.6149 -36.6824 112.198
lradius 60.6276 -0 0
lwrist 20.5705 0 0
lhand 9.11585 12.0575 -0.018289
lfingers 7.12502 -0 0
lthumb 34.281 38.7248 -0.0361204
rclavicle -8.55767e-15 -6.65176e-15 -1.97278e-30
rhumerus -41.0566 22.7183 -68.4864
rradius 56.4701 -0 0
rwrist 30.2538 0 0
rhand -8.058 -1.24901 -0.999088
rfingers 7.12502 -0 0
rthumb 17.8313 -30.2147 -0.830356
274
root 7.83853 15.8763 -25.0469 9.79396 52.0234 4.63013
lfemur -28.6451 20.713 -17.3647
ltibia 47.6569 -0 0
lfoot -16.7361 -15.5985 0.0842296
ltoes 55.9265 -0 0
rfemur -28.3147 -8.79657 14.1675
rtibia 57.714 -0 0
rfoot 16.4307 -5.96445 0.097894
rtoes 1.67665 -0 0
lowerback 4.50078 -3.08173 -3.75491
upperback 1.44355 -4.19576 0.198564
thorax -0.696398 -2.05833 2.48924
lowerneck -8.36819 -8.50556 -2.15931
upperneck 0.763446 -11.2684 4.60316
head 2.14596 -5.52049 1.34886
lclavicle -9.05741e-15 -7.05129e-15 -2.04531e-30
lhumerus -48.4063 -36.8486 111.717
lradius 60.5724 -0 0
lwrist 20.6252 0 0
lhand 9.26365 12.0279 -0.0188013
lfingers 7.12502 -0 0
lthumb 34.4212 38.6621 -0.0370839
rclavicle -9.05741e-15 -7.05129e-15 -2.04531e-30
rhumerus -41.044 24.622 -68.7018
rradius 57.3204 -0 0
rwrist 29.4283 0 0
rhand -7.35759 -1.21948 -1.06679
rfingers 7.12502 -0 0
rthumb 18.5047 -30.1282 -0.892857
275
root 7.88335 15.8594 -25.0081 9.8491 52.3243 5.02072
lfemur -28.2237 20.6374 -17.3983
ltibia 47.8642 -0 0
lfoot -16.7181 -16.1077 0.0906565
ltoes 56.2045 -0 0
rfemur -29.1546 -9.49135 15.0181
rtibia 57.7313 -0 0
rfoot 16.508 -4.98466 0.0954904
rtoes 1.43751 -0 0
lowerback 4.70006 -3.10528 -3.94545
upperback 1.5784 -4.23884 0.0346538
thorax -0.662478 -2.08022 2.43464
lowerneck -8.27804 -8.56425 -2.1827
upperneck 0.663153 -11.3508 4.83509
head 2.11867 -5.55827 1.42836
lclavicle -9.58114e-15 -7.44978e-15 -2.11154e-30
lhumerus -48.1945 -37.0159 111.231
lradius 60.5169 -0 0
lwrist 20.6797 0 0
lhand 9.41278 11.9983 -0.0192356
lfingers 7.12502 -0 0
lthumb 34.5626 38.599 -0.0378984
rclavicle -9.58114e-15 -7.44978e-15 -2.11154e-30
rhumerus -41.0353 26.5372 -68.9199
rradius 58.179 -0 0
rwrist 28.5933 0 0
rhand -6.65587 -1.19469 -1.13366
rfingers 7.12502 -0 0
rthumb 19.1793 -30.046 -0.955227
276
root 7.92844 15.8425 -24.9689 9.90822 52.6252 5.41654
lfemur -27.7992 20.5619 -17.4321
ltibia 48.0721 -0 0
lfoot -16.7009 -16.6171 0.0970991
ltoes 56.4798 -0 0
rfemur -30.0123 -10.1766 15.8837
rtibia 57.7476 -0 0
rfoot 16.583 -4.00269 0.0922991
rtoes 1.20408 -0 0
lowerback 4.9005 -3.12807 -4.13688
upperback 1.71426 -4.28149 -0.130302
thorax -0.628251 -2.10206 2.37956
lowerneck -8.18698 -8.62342 -2.20581
upperneck 0.561354 -11.4335 5.06854
head 2.09089 -5.59637 1.50829
lclavicle -1.01279e-14 -7.84634e-15 -2.17105e-30
lhumerus -47.9797 -37.1841 110.742
lradius 60.4611 -0 0
lwrist 20.7339 0 0
lhand 9.56301 11.9688 -0.019589
lfingers 7.12502 -0 0
lthumb 34.7051 38.5357 -0.0385585
rclavicle -1.01279e-14 -7.84634e-15 -2.17105e-30
rhumerus -41.0303 28.4601 -69.1406
rradius 59.0443 -0 0
rwrist 27.7501 0 0
rhand -5.95466 -1.17516 -1.19924
rfingers 7.12502 -0 0
rthumb 19.8532 -29.9686 -1.01705
277
root 7.97371 15.8255 -24.9294 9.97131 52.9253 5.81699
lfemur -27.3721 20.4868 -17.4661
ltibia 48.2799 -0 0
lfoot -16.6848 -17.1253 0.103512
ltoes 56.7515 -0 0
rfemur -30.8866 -10.8505 16.7625
rtibia 57.7628 -0 0
rfoot 16.6555 -3.02041 0.0883564
rtoes 0.976877 -0 0
lowerback 5.10174 -3.15005 -4.32882
upperback 1.85088 -4.32357 -0.295987
thorax -0.593773 -2.12379 2.32406
lowerneck -8.09512 -8.68302 -2.22857
upperneck 0.458154 -11.5164 5.30309
head 2.06266 -5.63478 1.5885
lclavicle -1.06968e-14 -8.24008e-15 -2.22343e-30
lhumerus -47.7624 -37.3531 110.249
lradius 60.405 -0 0
lwrist 20.7877 0 0
lhand 9.71414 11.9393 -0.0198592
lfingers 7.12502 -0 0
lthumb 34.8484 38.4723 -0.0390603
rclavicle -1.06968e-14 -8.24008e-15 -2.22343e-30
rhumerus -41.0289 30.3867 -69.3636
rradius 59.9149 -0 0
rwrist 26.8998 0 0
rhand -5.25579 -1.16143 -1.26307
rfingers 7.12502 -0 0
rthumb 20.5248 -29.8967 -1.0779
278
root 8.01909 15.8085 -24.8895 10.0383 53.2238 6.22146
lfemur -26.943 20.4122 -17.5001
ltibia 48.4874 -0 0
lfoot -16.6699 -17.6313 0.109847
ltoes 57.0186 -0 0
rfemur -31.7764 -11.5112 17.653
rtibia 57.7769 -0 0
rfoot 16.7254 -2.0397 0.0837068
rtoes 0.75644 -0 0
lowerback 5.30344 -3.17111 -4.52092
upperback 1.98803 -4.36497 -0.462115
thorax -0.559099 -2.14535 2.26824
lowerneck -8.00259 -8.74298 -2.25087
upperneck 0.353664 -11.5995 5.53831
head 2.03397 -5.67344 1.66884
lclavicle -1.12869e-14 -8.6301e-15 -2.26829e-30
lhumerus -47.543 -37.5228 109.755
lradius 60.3489 -0 0
lwrist 20.8408 0 0
lhand 9.86592 11.9101 -0.0200446
lfingers 7.12502 -0 0
lthumb 34.9923 38.4089 -0.0394006
rclavicle -1.12869e-14 -8.6301e-15 -2.26829e-30
rhumerus -41.0306 32.3134 -69.5886
rradius 60.7894 -0 0
rwrist 26.0436 0 0
rhand -4.56108 -1.15401 -1.32468
rfingers 7.12502 -0 0
rthumb 21.1924 -29.831 -1.13731
